<svg width="16" height="16" viewBox="0 0 16 16" fill="none" stroke="currentColor" xmlns="http://www.w3.org/2000/svg">
<path d="M13.388 5.04517V11.2002C13.388 11.9522 13.094 12.6587 12.561 13.1897C12.027 13.7217 11.3175 14.0147 10.5625 14.0147" stroke="currentColor"/>
<path d="M5.42706 14.0152C4.67206 14.0152 3.96256 13.7222 3.42856 13.1902C2.89556 12.6587 2.60156 11.9522 2.60156 11.2007V5.04565M10.5661 14.0062C11.3176 14.0062 12.0246 13.7147 12.5561 13.1847C13.0881 12.6537 13.3811 11.9492 13.3811 11.1997V5.05315H2.61156V11.1997C2.61156 11.9492 2.90456 12.6537 3.43656 13.1847C3.96806 13.7147 4.67556 14.0062 5.42656 14.0062H10.5651H10.5661Z" stroke="currentColor"/>
<path d="M5.45075 5.05361C5.42125 4.89761 5.40625 4.73711 5.40625 4.57261C5.40625 3.14361 6.56475 1.98511 7.99375 1.98511C9.42275 1.98511 10.5813 3.14361 10.5813 4.57261C10.5813 4.73711 10.5658 4.89811 10.5368 5.05361" stroke="currentColor" stroke-linejoin="round"/>
</svg>
