<svg width="16" height="16" viewBox="0 0 16 16" fill="none" xmlns="http://www.w3.org/2000/svg">
<g clip-path="url(#clip0_2557_6268)">
<path d="M10.5629 8.21851C11.3179 8.21851 12.0274 8.51101 12.5614 9.04351C13.0949 9.57501 13.3889 10.2825 13.3889 11.0335V14.0115M13.3784 14.0035V11.034C13.3784 10.2945 13.0774 9.57151 12.5534 9.04901C12.0219 8.51901 11.3149 8.22701 10.5629 8.22701H5.42488C4.67288 8.22701 3.96587 8.51901 3.43437 9.04901C2.91037 9.57151 2.60938 10.2945 2.60938 11.034V14.0035H13.3784Z" stroke="#1C1C1C"/>
<path d="M8.00156 7.16353C9.4306 7.16353 10.5891 6.00506 10.5891 4.57603C10.5891 3.14699 9.4306 1.98853 8.00156 1.98853C6.57253 1.98853 5.41406 3.14699 5.41406 4.57603C5.41406 6.00506 6.57253 7.16353 8.00156 7.16353Z" stroke="#1C1C1C" stroke-linejoin="round"/>
</g>
<defs>
<clipPath id="clip0_2557_6268">
<rect width="16" height="16" fill="white"/>
</clipPath>
</defs>
</svg>
