<svg width="16" height="16" viewBox="0 0 16 16" fill="none" xmlns="http://www.w3.org/2000/svg">
<path d="M13.2495 7.32861C13.2495 10.9356 9.198 13.3371 8.2135 13.8676C8.079 13.9401 7.9205 13.9401 7.786 13.8676C6.801 13.3371 2.75 10.9356 2.75 7.32861C2.75 4.17861 5.294 2.07861 8 2.07861C10.8 2.07861 13.2495 4.17861 13.2495 7.32861Z" stroke="#1C1C1C" stroke-linejoin="round"/>
<path d="M7.99531 9.87808C9.40364 9.87808 10.5453 8.7364 10.5453 7.32808C10.5453 5.91975 9.40364 4.77808 7.99531 4.77808C6.58699 4.77808 5.44531 5.91975 5.44531 7.32808C5.44531 8.7364 6.58699 9.87808 7.99531 9.87808Z" stroke="#1C1C1C" stroke-linejoin="round"/>
</svg>
