<?xml version="1.0" encoding="utf-8"?>
<!-- Generator: Adobe Illustrator 28.0.0, SVG Export Plug-In . SVG Version: 6.00 Build 0)  -->
<svg version="1.1" id="Слой_1" xmlns="http://www.w3.org/2000/svg" xmlns:xlink="http://www.w3.org/1999/xlink" x="0px" y="0px"
	 viewBox="0 0 600 193.64" style="enable-background:new 0 0 600 193.64;" xml:space="preserve">
<style type="text/css">
	.st0{fill:#010202;}
</style>
<path class="st0" d="M595.716,0.009h-18.911c-2.356,0-4.284,1.928-4.284,4.284v185.055c0,2.366,1.918,4.284,4.284,4.284h18.911
	c2.366,0,4.284-1.918,4.284-4.284V4.293C600,1.927,598.082,0.009,595.716,0.009z"/>
<path class="st0" d="M505.472,0c3.089,0,5.167,3.161,3.929,5.991c-3.809,8.706-8.215,18.789-13.006,29.725
	c-22.079,51.566-44.655,102.985-67.489,154.551c-0.121,0.274-0.243,0.548-0.364,0.823c-0.686,1.55-2.222,2.55-3.917,2.55h-21.411
	c-1.703,0-3.24-1-3.922-2.56c-0.123-0.281-0.246-0.564-0.371-0.849c-4.497-10.302-10.339-23.682-16.9-38.684
	c-15.573-36.546-32.104-75.635-48.839-111.794c-5.569-12.724-10.607-24.273-14.749-33.768C317.198,3.155,319.277,0,322.364,0h23.461
	c3.667,8.441,7.925,18.19,12.532,28.75c17.84,42.978,37.449,84.002,55.731,126.446C436.48,103.372,459.093,51.658,481.946,0H505.472
	z"/>
<path class="st0" d="M251.027,0.196h-18.903c-2.368,0-4.288,1.918-4.288,4.284v184.867c0,2.366,1.92,4.284,4.288,4.284h18.903
	c2.368,0,4.288-1.918,4.288-4.284V4.481C255.315,2.115,253.395,0.196,251.027,0.196z"/>
<path class="st0" d="M112.328,127.309c1.787-0.643,3.522-1.341,5.209-2.094c11.846-5.287,20.954-12.894,27.336-22.827
	c6.375-9.934,9.567-21.825,9.567-35.675c0-13.85-3.192-25.787-9.567-35.811c-6.382-10.021-15.49-17.676-27.336-22.966
	c-11.849-5.283-26.15-7.927-42.913-7.927H4.284C1.918,0.009,0,1.927,0,4.293v185.055c0,2.366,1.918,4.284,4.284,4.284h18.765
	c2.366,0,4.284-1.918,4.284-4.284v-55.66c0-0.302,0.244-0.546,0.546-0.546h46.745c4.207,0,8.256-0.165,12.152-0.498
	C96.198,131.84,104.716,130.063,112.328,127.309z M27.504,107.844V23.911l52.022,0.318c25.526,0.318,42.005,12.399,44.267,38.151
	v2.226c1.939,22.891-12.925,43.238-44.267,43.238H27.504z"/>
<path class="st0" d="M164.955,193.64H138.63c-1.027,0-1.997-0.477-2.623-1.291l-39.759-51.614c-0.993-1.289-0.238-3.146,1.366-3.423
	c5.973-1.029,11.583-2.48,16.756-4.343c1.898-0.7,3.796-1.456,5.621-2.267l0.845-0.384c0.906-0.412,1.976-0.146,2.584,0.643
	l44.161,57.346C169.256,190.486,167.703,193.64,164.955,193.64z"/>
</svg>
